<svg
   viewBox="0 0 25 25"
   width="25"
   height="25"
   version="1.1"
   id="svg1"
   sodipodi:docname="apple-logo.svg"
   inkscape:version="1.3.2 (091e20e, 2023-11-25)"
   xmlns:inkscape="http://www.inkscape.org/namespaces/inkscape"
   xmlns:sodipodi="http://sodipodi.sourceforge.net/DTD/sodipodi-0.dtd"
   xmlns="http://www.w3.org/2000/svg"
   xmlns:svg="http://www.w3.org/2000/svg">
  <defs
     id="defs1" />
  <sodipodi:namedview
     id="namedview1"
     pagecolor="#ffffff"
     bordercolor="#000000"
     borderopacity="0.25"
     inkscape:showpageshadow="2"
     inkscape:pageopacity="0.0"
     inkscape:pagecheckerboard="0"
     inkscape:deskcolor="#d1d1d1"
     inkscape:zoom="29.799997"
     inkscape:cx="12.483223"
     inkscape:cy="12.500001"
     inkscape:window-width="1392"
     inkscape:window-height="916"
     inkscape:window-x="0"
     inkscape:window-y="38"
     inkscape:window-maximized="0"
     inkscape:current-layer="svg1" />
  <g
     transform="matrix(0.04464007,0,0,0.04464007,2.321881,-1.329974e-6)"
     id="g1">
    <path
       fill="#000000"
       d="m 380.844,297.529 c 0.787,84.752 74.349,112.955 75.164,113.314 -0.622,1.988 -11.754,40.191 -38.756,79.652 -23.343,34.117 -47.568,68.107 -85.731,68.811 -37.499,0.691 -49.557,-22.236 -92.429,-22.236 -42.859,0 -56.256,21.533 -91.753,22.928 C 110.502,561.393 82.45,523.107 58.915,489.115 10.822,419.585 -25.931,292.64 23.419,206.95 c 24.516,-42.554 68.328,-69.501 115.882,-70.192 36.173,-0.69 70.315,24.336 92.429,24.336 22.1,0 63.59,-30.096 107.208,-25.676 18.26,0.76 69.517,7.376 102.429,55.552 -2.652,1.644 -61.159,35.704 -60.523,106.559 M 310.369,89.418 C 329.926,65.745 343.089,32.79 339.498,0 311.308,1.133 277.22,18.785 257,42.445 c -18.121,20.952 -33.991,54.487 -29.709,86.628 31.421,2.431 63.52,-15.967 83.078,-39.655"
       id="path1" />
  </g>
</svg>
