<svg xmlns="http://www.w3.org/2000/svg" viewBox="0 0 24 24" fill="none">
  <path d="M19.03 14.595c-0.04 -0.145 0.048 -0.346 0.133 -0.49a1.353 1.353 0 0 1 0.084 -0.125 6.509 6.509 0 0 0 1.109 -3.628c0.102 -3.703 -3.133 -6.725 -7.077 -6.725 -3.371 0 -6.184 2.294 -6.843 5.34a6.457 6.457 0 0 0 -0.149 1.374c0 3.708 3.005 6.794 6.871 6.794 0.615 0 1.442 -0.185 1.896 -0.309 0.454 -0.125 0.904 -0.29 1.021 -0.334a1.062 1.062 0 0 1 0.373 -0.068 1.045 1.045 0 0 1 0.406 0.08l2.278 0.808a0.543 0.543 0 0 0 0.157 0.04 0.321 0.321 0 0 0 0.321 -0.321 0.516 0.516 0 0 0 -0.02 -0.108z" stroke="currentColor" stroke-width="1.5" stroke-linecap="round" stroke-linejoin="round"/>
  <path d="M4.384 11.035a5.875 5.875 0 0 0 0.257 6.134c0.093 0.14 0.145 0.249 0.129 0.321 -0.016 0.073 -0.479 2.486 -0.479 2.486a0.321 0.321 0 0 0 0.109 0.309 0.328 0.328 0 0 0 0.207 0.071 0.292 0.292 0 0 0 0.117 -0.024l2.258 -0.884a0.631 0.631 0 0 1 0.482 0.008c0.761 0.297 1.602 0.482 2.444 0.482a6.397 6.397 0 0 0 3.216 -0.863" stroke="currentColor" stroke-width="1.5" stroke-linecap="round" stroke-linejoin="round"/>
</svg>
