<svg
   fill="none"
   viewBox="0 0 25 25"
   width="25"
   height="25"
   version="1.1"
   id="svg2"
   sodipodi:docname="facebook-logo.svg"
   inkscape:version="1.3.2 (091e20e, 2023-11-25)"
   xmlns:inkscape="http://www.inkscape.org/namespaces/inkscape"
   xmlns:sodipodi="http://sodipodi.sourceforge.net/DTD/sodipodi-0.dtd"
   xmlns="http://www.w3.org/2000/svg"
   xmlns:svg="http://www.w3.org/2000/svg">
  <defs
     id="defs2" />
  <sodipodi:namedview
     id="namedview2"
     pagecolor="#ffffff"
     bordercolor="#000000"
     borderopacity="0.25"
     inkscape:showpageshadow="2"
     inkscape:pageopacity="0.0"
     inkscape:pagecheckerboard="0"
     inkscape:deskcolor="#d1d1d1"
     inkscape:zoom="27.52"
     inkscape:cx="12.5"
     inkscape:cy="12.518168"
     inkscape:window-width="1392"
     inkscape:window-height="916"
     inkscape:window-x="0"
     inkscape:window-y="38"
     inkscape:window-maximized="0"
     inkscape:current-layer="svg2" />
  <g
     transform="matrix(1.7848901,0,0,1.7848901,-1.7733517,-1.7796169)"
     id="g2">
    <path
       d="M 15,8 A 7,7 0 0 0 8,1 7,7 0 0 0 6.906,14.915 V 10.023 H 5.13 V 8 H 6.907 V 6.458 c 0,-1.754 1.045,-2.724 2.644,-2.724 0.766,0 1.567,0.137 1.567,0.137 v 1.723 h -0.883 c -0.87,0 -1.14,0.54 -1.14,1.093 V 8 h 1.941 l -0.31,2.023 H 9.094 v 4.892 A 7.001,7.001 0 0 0 15,8 Z"
       fill="#1877f2"
       id="path1" />
    <path
       d="M 10.725,10.023 11.035,8 H 9.094 V 6.687 c 0,-0.553 0.27,-1.093 1.14,-1.093 h 0.883 V 3.87 c 0,0 -0.801,-0.137 -1.567,-0.137 -1.6,0 -2.644,0.97 -2.644,2.724 V 8 H 5.13 v 2.023 h 1.777 v 4.892 a 7.037,7.037 0 0 0 2.188,0 v -4.892 z"
       fill="#ffffff"
       id="path2" />
  </g>
</svg>
