<svg xmlns="http://www.w3.org/2000/svg" viewBox="0 0 24 24" width="24" height="24">
  <path d="M17.73 4.64c-.74 0-2.86 0-3.85 2.54-.33-.08-.74-.08-1.06-.08h-1.64c-.33 0-.74 0-1.06.08-1-2.54-3.11-2.54-3.85-2.54-.82 0-3.28.82-3.28 4.91 0 2.95 2.05 3.76 3.27 4.01v.9c0 2.7 2.21 4.91 4.91 4.91h1.64c2.7 0 4.91-2.21 4.91-4.91v-.9c1.23-.25 3.27-1.06 3.27-4.01 0-4.09-2.46-4.91-3.28-4.91M6.27 12v.33c-1.72-.49-1.39-2.37-.57-2.7-.25-.33-1.06.25-1.06-.08 0-.41 1.47-.98 1.72-1.06-.25-.41-1.23-.25-1.23-.57 0-.25.98-.66 1.8-.49.41.08.9.25 1.31.57-.74 1.06-1.56 2.29-1.56 4m2.86 2.46c-1.64 0-1.64-2.46 0-2.46s1.64 2.46 0 2.46m3.27 2.46h-.82c-.57 0-.98-.57-.74-1.06l.57-2.46c.08-.33.41-.49.66-.57.25 0 .49.16.66.57l.57 2.46c.08.49-.33 1.06-.9 1.06m2.46-2.46c-1.64 0-1.64-2.46 0-2.46s1.64 2.46 0 2.46m1.72-5.17c.82.66 1.15 2.54-.57 3.03.08-1.8-.74-3.52-1.97-4.58.41-.33.9-.49 1.31-.57.82-.16 1.8.16 1.8.49 0 .33-.98.16-1.23.49.25.16 1.72.74 1.72 1.15 0 .33-.74-.25-1.06 0z" fill="currentColor"/>
</svg>
