<?xml version="1.0" encoding="UTF-8" standalone="no"?>
<svg
   fill="none"
   viewBox="0.896 0.928 25 25.000001"
   width="25"
   height="25"
   version="1.1"
   id="svg2"
   sodipodi:docname="facebook-logo.svg"
   inkscape:version="1.3.2 (091e20e, 2023-11-25)"
   xmlns:inkscape="http://www.inkscape.org/namespaces/inkscape"
   xmlns:sodipodi="http://sodipodi.sourceforge.net/DTD/sodipodi-0.dtd"
   xmlns="http://www.w3.org/2000/svg"
   xmlns:svg="http://www.w3.org/2000/svg">
  <defs
     id="defs2" />
  <sodipodi:namedview
     id="namedview2"
     pagecolor="#ffffff"
     bordercolor="#000000"
     borderopacity="0.25"
     inkscape:showpageshadow="2"
     inkscape:pageopacity="0.0"
     inkscape:pagecheckerboard="0"
     inkscape:deskcolor="#d1d1d1"
     inkscape:zoom="29.812565"
     inkscape:cx="12.494732"
     inkscape:cy="12.494732"
     inkscape:window-width="1392"
     inkscape:window-height="916"
     inkscape:window-x="0"
     inkscape:window-y="38"
     inkscape:window-maximized="0"
     inkscape:current-layer="svg2" />
  <path
     d="M 25.895999,13.424954 A 12.49423,12.49423 0 0 0 13.40177,0.93072414 12.49423,12.49423 0 0 0 11.4491,25.767469 V 17.035786 H 8.2791355 v -3.610832 h 3.1717495 v -2.7523 c 0,-3.1306974 1.86521,-4.8620407 4.719249,-4.8620407 1.367226,0 2.796923,0.24453 2.796923,0.24453 v 3.0753654 h -1.576058 c -1.552854,0 -2.034775,0.9638403 -2.034775,1.9508843 v 2.343561 h 3.464472 l -0.553316,3.610832 h -2.912941 v 8.731683 a 12.496015,12.496015 0 0 0 10.54156,-12.342515 z"
     fill="#1877f2"
     id="path1"
     style="stroke-width:1.78489" />
  <path
     d="m 18.265595,17.035786 0.553316,-3.610832 h -3.464472 v -2.343561 c 0,-0.987044 0.481921,-1.9508843 2.034775,-1.9508843 h 1.576058 V 6.0533584 c 0,0 -1.429697,-0.2445299 -2.796923,-0.2445299 -2.855824,0 -4.719249,1.7313432 -4.719249,4.8620405 v 2.754085 H 8.2791355 v 3.610832 h 3.1717495 v 8.731683 a 12.560271,12.560271 0 0 0 3.905339,0 v -8.731683 z"
     fill="#ffffff"
     id="path2"
     style="stroke-width:1.78489" />
</svg>
